<?xml version="1.0" encoding="UTF-8"?>
<svg xmlns="http://www.w3.org/2000/svg" version="1.1" xmlns:xlink="http://www.w3.org/1999/xlink" viewBox="0 0 1800 482">
  <!-- Generator: Adobe Illustrator 28.7.1, SVG Export Plug-In . SVG Version: 1.2.0 Build 142)  -->
  <g>
    <g id="logo">
      <g id="Julia">
        <g>
          <path d="M80.7,330.8c-12.1,0-23.2-2.1-33.3-6.4s-18.2-10.8-24.3-19.5-9.1-19.8-9.1-33.2v-2.3h42.2v2.3c0,5.3,1,9.8,3.1,13.6s4.9,6.6,8.6,8.7c3.7,2,8,3,12.9,3s9.6-1.1,13.2-3.4c3.6-2.2,6.4-5.5,8.3-9.9,1.9-4.3,2.8-9.7,2.8-16.1V128h41.8v139.7c0,12.8-2.7,24-8.1,33.4-5.4,9.5-13,16.8-22.9,22-9.9,5.1-21.6,7.7-35.1,7.7h0Z"/>
          <path d="M296.2,128h42.3v129.9c0,14.6-3.5,27.4-10.4,38.4s-16.6,19.5-29.1,25.6c-12.5,6.1-27,9.1-43.5,9.1s-31.1-3-43.5-9.1c-12.4-6.1-22.1-14.6-29-25.6-6.9-11-10.4-23.8-10.4-38.4V128h42.2v126.4c0,7.6,1.7,14.4,5.1,20.4,3.4,6,8.1,10.6,14.2,14,6.1,3.4,13.2,5,21.4,5s15.4-1.7,21.5-5c6.1-3.4,10.8-8,14.2-14,3.4-6,5-12.7,5-20.4v-126.4h0Z"/>
          <path d="M364.3,328.1V128h42.2v165.3h85.9v34.9h-128Z"/>
          <path d="M553.7,128v200.2h-42.2V128h42.2Z"/>
          <path d="M613.9,328.1h-45.3l69.1-200.2h54.5l68.9,200.2h-45.1l-50.2-154.5h-1.6l-50.2,154.5h0ZM611.2,249.4h107.1v33.1h-107.1v-33.1Z"/>
        </g>
      </g>
      <image id="photo-1" width="160" height="220" transform="translate(684.5 46.7)" xlink:href="./img/hero-2.jpg"/>
      <g id="Musht">
        <g>
          <path d="M823,131h52.3l55.1,134.5h2.3l55.2-134.5h52.4v200.2h-41.4v-130.3h-1.6l-52,129.4h-28l-51.6-129.6h-1.6v130.6h-41.1v-200.2h0Z"/>
          <path d="M1189.7,131h42.3v129.9c0,14.6-3.5,27.4-10.4,38.4-6.9,11-16.6,19.5-29.1,25.6s-27,9.1-43.5,9.1-31.1-3-43.5-9.1c-12.4-6.1-22.1-14.6-29-25.6s-10.3-23.8-10.3-38.4v-129.9h42.2v126.4c0,7.6,1.7,14.4,5.1,20.4,3.4,6,8.2,10.6,14.2,14s13.2,5,21.4,5,15.4-1.7,21.5-5c6.1-3.4,10.8-8,14.2-14,3.4-6,5-12.7,5-20.4v-126.4h0Z"/>
          <path d="M1332,334.1c-16.1,0-30.2-2.5-42.1-7.4-12-4.9-21.3-12.3-27.9-22-6.7-9.8-10.2-21.9-10.6-36.3h40.8c.5,6.6,2.5,12.2,5.9,16.7,3.4,4.5,8,7.9,13.7,10.1,5.7,2.2,12.3,3.4,19.8,3.4s13.4-1,18.7-3.1,9.4-4.9,12.4-8.7,4.4-8,4.4-13-1.3-8.2-4-11.3c-2.6-3-6.5-5.6-11.6-7.8-5.1-2.1-11.2-4.1-18.5-5.8l-21.9-5.4c-16.8-4-30.1-10.5-39.9-19.3s-14.6-20.6-14.6-35.4,3.3-22.7,9.9-31.8c6.6-9.1,15.6-16.2,27-21.2,11.4-5.1,24.4-7.6,39-7.6s27.8,2.5,38.9,7.7c11.1,5.1,19.7,12.2,25.9,21.2,6.2,9,9.4,19.5,9.6,31.3h-40.7c-.7-7.8-4.1-13.9-10-18.3-6-4.4-14-6.6-24.1-6.6s-12.6,1-17.4,2.9-8.4,4.6-10.9,8c-2.5,3.4-3.8,7.3-3.8,11.7s1.4,8.6,4.3,11.8,6.7,5.8,11.5,7.8c4.8,2,10.1,3.7,15.8,5l17.9,4.4c8.7,2,16.7,4.6,24.1,7.9,7.3,3.3,13.7,7.3,19.2,12,5.4,4.8,9.6,10.3,12.6,16.7,3,6.4,4.4,13.8,4.4,22.1,0,12.3-3.1,22.9-9.2,31.9-6.1,9-15,15.9-26.5,20.8-11.6,4.9-25.5,7.3-41.9,7.3h0Z"/>
          <path d="M1429,331.2v-200.2h42.2v82.6h86v-82.6h42.2v200.2h-42.2v-82.8h-86v82.8h-42.2Z"/>
          <path d="M1617.5,166v-34.9h164.4v34.9h-61.3v165.2h-41.8v-165.2h-61.4Z"/>
        </g>
      </g>
      <image id="photo-2" width="160" height="220" transform="translate(1021.9 241)" xlink:href="./img/hero-3.jpg"/>
    </g>
  </g>
</svg>